<svg width="113" height="44" viewBox="0 0 113 44" fill="none" xmlns="http://www.w3.org/2000/svg">
<path d="M32.544 19.624C33.096 19.576 33.732 19.588 34.452 19.66C35.628 19.9 36.468 20.344 36.972 20.992C37.212 21.256 37.392 21.604 37.512 22.036C37.632 22.468 37.632 22.924 37.512 23.404C37.296 24.316 36.744 24.88 35.856 25.096C35.568 25.168 35.28 25.168 34.992 25.096C34.584 25.024 34.284 24.808 34.092 24.448C34.02 24.328 33.972 24.148 33.948 23.908C33.948 23.524 34.032 23.164 34.2 22.828C34.344 22.492 34.608 22.204 34.992 21.964L35.208 21.82L35.028 21.712C34.26 21.28 33.372 21.16 32.364 21.352C32.22 21.376 32.088 21.412 31.968 21.46C31.392 21.628 30.948 21.964 30.636 22.468C29.988 23.428 29.964 24.196 30.564 24.772C30.612 24.82 30.672 24.868 30.744 24.916C30.984 25.084 31.524 25.264 32.364 25.456C33.132 25.6 33.6 25.708 33.768 25.78C35.112 26.188 36.012 26.968 36.468 28.12C36.66 28.528 36.756 29.032 36.756 29.632C36.756 30.088 36.744 30.388 36.72 30.532C36.504 31.516 36.12 32.38 35.568 33.124C34.2 35.044 32.076 35.968 29.196 35.896C27.084 35.824 25.632 35.176 24.84 33.952C24.768 33.856 24.708 33.748 24.66 33.628C24.492 33.292 24.408 32.884 24.408 32.404C24.384 31.924 24.48 31.456 24.696 31C24.888 30.688 25.044 30.46 25.164 30.316C25.932 29.572 26.76 29.368 27.648 29.704C27.696 29.728 27.744 29.752 27.792 29.776C28.272 29.992 28.548 30.364 28.62 30.892C28.74 31.684 28.464 32.38 27.792 32.98C27.648 33.124 27.48 33.244 27.288 33.34C27.12 33.436 27.024 33.496 27 33.52C27.072 33.64 27.384 33.784 27.936 33.952C28.416 34.096 29.016 34.168 29.736 34.168C30.456 34.168 31.032 34.096 31.464 33.952C32.256 33.712 32.856 33.256 33.264 32.584C33.816 31.792 33.936 31.096 33.624 30.496C33.384 29.992 32.976 29.644 32.4 29.452C32.232 29.38 31.788 29.272 31.068 29.128C30.228 28.96 29.58 28.78 29.124 28.588C28.164 28.06 27.54 27.28 27.252 26.248C27.204 26.056 27.18 25.756 27.18 25.348C27.156 24.916 27.24 24.376 27.432 23.728C27.696 22.936 28.092 22.216 28.62 21.568C29.532 20.488 30.84 19.84 32.544 19.624Z" fill="#fff"/>
<path d="M43.695 19.624C44.127 19.576 44.619 19.588 45.171 19.66C46.323 19.924 47.139 20.5 47.619 21.388L47.763 21.676L48.087 21.388C49.071 20.5 50.151 19.924 51.327 19.66C52.023 19.564 52.671 19.576 53.271 19.696C54.279 19.912 55.119 20.356 55.791 21.028C56.391 21.628 56.823 22.36 57.087 23.224C57.495 24.424 57.555 25.732 57.267 27.148C56.787 29.764 55.551 31.936 53.559 33.664C53.199 33.976 52.839 34.252 52.479 34.492C51.735 34.972 51.039 35.32 50.391 35.536C49.719 35.752 49.059 35.86 48.411 35.86C47.931 35.86 47.643 35.848 47.547 35.824C46.683 35.632 45.999 35.248 45.495 34.672C45.351 34.528 45.279 34.468 45.279 34.492L43.839 40.252C43.839 40.324 43.875 40.36 43.947 40.36C44.163 40.432 44.739 40.468 45.675 40.468C46.131 40.468 46.383 40.492 46.431 40.54C46.575 40.588 46.647 40.696 46.647 40.864L46.287 42.268C46.191 42.412 45.963 42.472 45.603 42.448C45.507 42.448 45.327 42.448 45.063 42.448C42.015 42.352 39.771 42.364 38.331 42.484H38.043L37.935 42.376C37.839 42.28 37.791 42.196 37.791 42.124L38.151 40.72V40.684C38.319 40.54 38.655 40.468 39.159 40.468C39.855 40.444 40.263 40.372 40.383 40.252C40.455 40.18 41.187 37.372 42.579 31.828C43.971 26.26 44.691 23.344 44.739 23.08C44.907 21.928 44.679 21.328 44.055 21.28C43.983 21.28 43.911 21.28 43.839 21.28C43.119 21.424 42.483 22.6 41.931 24.808C41.835 25.096 41.787 25.252 41.787 25.276C41.523 25.42 41.235 25.492 40.923 25.492H40.239L40.131 25.384C40.035 25.288 40.035 25.036 40.131 24.628C40.587 22.948 41.151 21.688 41.823 20.848C42.351 20.2 42.975 19.792 43.695 19.624ZM52.623 21.388C52.287 21.268 51.891 21.256 51.435 21.352C50.331 21.544 49.251 22.3 48.195 23.62L47.871 24.016L46.935 27.796C46.311 30.316 45.999 31.588 45.999 31.612C45.999 31.852 46.155 32.284 46.467 32.908C46.731 33.364 47.091 33.712 47.547 33.952C48.627 34.504 49.755 34.228 50.931 33.124C51.723 32.404 52.383 31.156 52.911 29.38C53.319 27.844 53.607 26.632 53.775 25.744C54.087 24.304 54.111 23.248 53.847 22.576C53.607 21.976 53.199 21.58 52.623 21.388Z" fill="#fff"/>
<path d="M67.0565 19.624C67.0805 19.6 67.2965 19.588 67.7045 19.588C68.1365 19.636 68.4365 19.672 68.6045 19.696C69.3965 19.936 70.0445 20.344 70.5485 20.92L70.7285 21.172L70.9805 20.92C71.6285 20.32 72.3005 20.152 72.9965 20.416C73.3565 20.536 73.5965 20.764 73.7165 21.1C73.8125 21.388 73.7525 21.988 73.5365 22.9C73.3925 23.524 73.0565 24.88 72.5285 26.968C71.6885 30.256 71.2445 32.068 71.1965 32.404C71.1005 32.932 71.1125 33.364 71.2325 33.7C71.3765 34.084 71.6525 34.252 72.0605 34.204C72.3485 34.18 72.6485 33.952 72.9605 33.52C73.2965 33.016 73.6445 32.08 74.0045 30.712C74.1005 30.304 74.2085 30.076 74.3285 30.028C74.4005 30.004 74.6285 29.992 75.0125 29.992C75.4685 29.992 75.7205 30.016 75.7685 30.064C75.9125 30.16 75.9125 30.436 75.7685 30.892C75.1445 33.124 74.3405 34.6 73.3565 35.32C72.9725 35.608 72.5885 35.788 72.2045 35.86C71.7005 35.932 71.1605 35.896 70.5845 35.752C69.5045 35.512 68.7365 34.948 68.2805 34.06L68.1725 33.808L67.9565 33.988C66.0605 35.62 64.1885 36.196 62.3405 35.716C61.8125 35.572 61.3205 35.356 60.8645 35.068C59.4965 34.108 58.7165 32.68 58.5245 30.784C58.4285 30.136 58.4405 29.44 58.5605 28.696C58.8725 26.68 59.7005 24.832 61.0445 23.152C61.5005 22.6 62.0045 22.096 62.5565 21.64C63.9245 20.512 65.3045 19.852 66.6965 19.66C66.7925 19.636 66.9125 19.624 67.0565 19.624ZM68.1005 21.388C67.6205 21.268 67.2245 21.244 66.9125 21.316C66.1685 21.46 65.4485 21.88 64.7525 22.576C64.0565 23.32 63.4445 24.64 62.9165 26.536C62.7965 26.968 62.6645 27.472 62.5205 28.048C62.1125 29.68 61.9085 30.892 61.9085 31.684C61.9085 32.428 62.0645 33.016 62.3765 33.448C62.8325 34.048 63.4685 34.288 64.2845 34.168C65.1965 34.072 66.1325 33.544 67.0925 32.584C67.5245 32.152 67.8485 31.756 68.0645 31.396C68.0645 31.468 68.3885 30.208 69.0365 27.616L69.9365 23.908L69.9005 23.656C69.5885 22.456 68.9885 21.7 68.1005 21.388Z" fill="#fff"/>
<path d="M87.0112 19.624H88.4872C90.2392 19.888 91.3312 20.62 91.7632 21.82C92.0032 22.54 91.9432 23.272 91.5832 24.016C91.4152 24.328 91.2592 24.556 91.1152 24.7C90.4672 25.3 89.7712 25.54 89.0272 25.42C88.6672 25.372 88.3552 25.24 88.0912 25.024C87.8512 24.784 87.7072 24.496 87.6592 24.16C87.5392 23.44 87.7792 22.756 88.3792 22.108C88.5472 21.94 88.7272 21.808 88.9192 21.712C88.9912 21.664 89.0392 21.628 89.0632 21.604C89.0632 21.532 88.7392 21.436 88.0912 21.316C86.5072 21.1 85.0792 21.64 83.8072 22.936C82.9672 23.848 82.2952 25.264 81.7912 27.184C81.7672 27.352 81.7312 27.52 81.6832 27.688C81.2032 29.608 81.0112 30.952 81.1072 31.72C81.2752 32.992 81.9592 33.784 83.1592 34.096C83.6632 34.24 84.4072 34.24 85.3912 34.096C86.9032 33.88 88.1872 33.364 89.2432 32.548C89.6992 32.26 90.0832 31.912 90.3952 31.504C90.6592 31.192 90.8752 31.096 91.0432 31.216C91.1152 31.264 91.2472 31.384 91.4392 31.576C91.7752 31.936 91.9312 32.164 91.9072 32.26C91.8112 32.524 91.3912 32.968 90.6472 33.592C90.5272 33.688 90.4192 33.772 90.3232 33.844C88.6192 35.14 86.5672 35.824 84.1672 35.896C82.5832 35.92 81.2392 35.56 80.1352 34.816C79.5832 34.48 79.0912 34 78.6592 33.376C78.2032 32.704 77.8912 31.96 77.7232 31.144C77.2672 28.912 77.8072 26.656 79.3432 24.376C79.5112 24.112 79.6912 23.86 79.8832 23.62C80.2912 23.092 80.8672 22.516 81.6112 21.892C83.3152 20.524 85.1152 19.768 87.0112 19.624Z" fill="#fff"/>
<path d="M102.585 19.624H104.025C105.753 19.888 106.857 20.68 107.337 22C107.481 22.48 107.505 22.972 107.409 23.476C107.001 25.324 105.669 26.536 103.413 27.112C102.405 27.4 100.737 27.58 98.4094 27.652H97.2574L97.1854 27.868C97.0894 28.276 96.9694 28.9 96.8254 29.74C96.7294 30.508 96.7294 31.192 96.8254 31.792C96.9694 32.488 97.2694 33.052 97.7254 33.484C98.2774 33.988 99.0214 34.228 99.9574 34.204C101.877 34.084 103.497 33.532 104.817 32.548C105.273 32.26 105.657 31.912 105.969 31.504C106.233 31.192 106.449 31.096 106.617 31.216C106.689 31.264 106.821 31.384 107.013 31.576C107.349 31.936 107.505 32.164 107.481 32.26C107.457 32.38 107.193 32.692 106.689 33.196C105.177 34.636 103.233 35.5 100.857 35.788C100.041 35.932 99.3214 35.956 98.6974 35.86C96.4414 35.62 94.8694 34.48 93.9814 32.44C93.8134 32.08 93.6814 31.696 93.5854 31.288C93.4174 30.688 93.3334 29.932 93.3334 29.02C93.3574 27.604 93.6694 26.308 94.2694 25.132C94.7014 24.244 95.2894 23.428 96.0334 22.684C96.3934 22.348 96.8374 21.976 97.3654 21.568C98.8294 20.488 100.413 19.852 102.117 19.66C102.237 19.636 102.393 19.624 102.585 19.624ZM103.557 21.316C102.669 21.148 101.733 21.316 100.749 21.82C99.3334 22.468 98.3494 23.716 97.7974 25.564C97.7494 25.756 97.7134 25.864 97.6894 25.888C97.6894 25.936 98.0854 25.96 98.8774 25.96C100.437 25.936 101.613 25.828 102.405 25.636C104.037 25.3 104.997 24.604 105.285 23.548C105.381 23.164 105.369 22.828 105.249 22.54C105.033 21.916 104.469 21.508 103.557 21.316Z" fill="#fff"/>
<line x1="19.7222" y1="44" x2="19.7222" y2="4" stroke="#fff" stroke-width="5"/>
<path d="M0 3H73.9636H113" stroke="#fff" stroke-width="5"/>
</svg>
